<?xml version="1.0" encoding="UTF-8"?>
<svg viewBox="-130 0 335 200" xmlns="http://www.w3.org/2000/svg">
  <style>
    .commits circle {
      stroke: black;
    }

    .tree line {
      stroke: #404040;
    }

    .refs line {
      stroke: #cccccc;
      stroke-dasharray: 1 1;
    }

    .refs text {
      font: 5px monospace;
      text-anchor: end;
    }
  </style>
  <g class="tree">
    <line x1="0" y1="190" x2="0" y2="10" />

    <line x1="0" y1="170" x2="20" y2="130" />
    <line x1="0" y1="170" x2="30" y2="140" />
    <line x1="0" y1="170" x2="40" y2="150" />

    <line x1="0" y1="170" x2="20" y2="110" />
    <line x1="20" y1="110" x2="40" y2="90" />
    <line x1="40" y1="90" x2="0" y2="30" />

    <line x1="20" y1="130" x2="20" y2="110" />
    <line x1="30" y1="140" x2="30" y2="100" />
    <line x1="40" y1="150" x2="40" y2=" 90" />

    <line x1="0" y1="170" x2="-20" y2="70" />
    <line x1="-20" y1="70" x2="-20" y2="50" />
    <line x1="-20" y1="50" x2="0" y2="10" />
  </g>

  <g class="commits">
    <circle cx="0" cy="190" r="5" fill="#404040" />
    <circle cx="0" cy="170" r="5" fill="#404040" />
    <circle cx="0" cy=" 30" r="5" fill="#404040" />
    <circle cx="0" cy=" 10" r="5" fill="#404040" />

    <circle cx="20" cy="130" r="5" fill="#404080" />
    <circle cx="30" cy="140" r="5" fill="#404080" />
    <circle cx="40" cy="150" r="5" fill="#404080" />

    <circle cx="20" cy="110" r="5" fill="#408040" />
    <circle cx="30" cy="100" r="5" fill="#408040" />
    <circle cx="40" cy=" 90" r="5" fill="#408040" />

    <circle cx="-20" cy="70" r="5" fill="#804040" />
    <circle cx="-20" cy="50" r="5" fill="#804040" />
  </g>

  <g class="refs">
    <line x1="7" y1="170" x2="100" y2="170" />
    <text x="100" y="169">upstream/master</text>

    <line x1="27" y1="130" x2="100" y2="130" />
    <text x="100" y="129">upstream/zimmermann</text>

    <line x1="37" y1="140" x2="100" y2="140" />
    <text x="100" y="139">upstream/shi</text>

    <line x1="47" y1="150" x2="100" y2="150" />
    <text x="100" y="149">upstream/alice</text>

    <line x1="47" y1="90" x2="100" y2="90" />
    <text x="100" y="89">text, origin/text</text>

    <line x1="-13" y1="50" x2="100" y2="50" />
    <text x="100" y="49">code, origin/code</text>

    <line x1="7" y1="10" x2="100" y2="10" />
    <text x="100" y="9">HEAD → master, origin/master</text>
  </g>
</svg>
